<svg xmlns="http://www.w3.org/2000/svg" xml:space="preserve" width="1500" height="1500" fill="#fff" stroke="#fff" data-id="lg_agwksj7S6Eg39yF5oo" data-version="1"><path fill="#000" stroke="transparent" d="M0 0h1500v1500H0z"/><g data-padding="20"><g transform="translate(-571.429 -580.325)scale(1.72194)"><path fill="#181818" fill-rule="evenodd" d="M554.305 750.157c-12.166 16.73-11.406 50.186-15.968 73.76-5.703 30.035-26.994 45.623-50.947 58.55q11.406-44.864 15.588-88.207c3.042-36.119-2.281-33.838 29.276-59.69 44.103-36.5 115.58-66.156 222.417-87.447 93.149-15.208 192-17.11 292.754-12.927-34.218 68.436-142.195 74.52-273.744 60.072-69.197.76-133.07-19.01-219.376 55.51m316.707 105.314c-148.278 77.561-296.556-86.685-348.644 26.234 79.842-69.196 193.142 121.284 349.024-25.854m94.67-96.57c-171.09 103.414-361.19-30.416-414.798 70.337 129.648-46.765 295.035 104.935 414.418-70.337m31.556-56.27c-149.8 66.535-381.72-53.228-439.891 85.165 118.242-68.816 321.269 54.368 439.89-85.165"/><path fill="#a3a3a3" stroke="#000" stroke-width="1.97" d="M767.577 770.14h.89-.89.89l11.77-48.61 9.54-35.74h27.75l9.99 155.39h-29.08l-4.22-84.8h-1.11l-15.98 62.6h-18.2l-15.99-62.6h-1.11l-4.21 84.8h-29.08l9.99-155.39h27.74l9.55 35.74Z"/><rect width="140.443" height="250.86" x="297.376" y="247.159" fill="none" rx="0" ry="0" transform="translate(400.99 400.9)"/></g><path fill="transparent" stroke="transparent" stroke-width="1.786" d="M250 499.107h1000v501.786H250z"/></g></svg>